<?xml version="1.0" encoding="UTF-8" standalone="no"?>
<svg
   width="150"
   height="110"
   viewBox="0 0 150 110"
   fill="none"
   alt="STMicroelectronics home logo"
   aria-hidden="true"
   role="img"
   version="1.1"
   id="svg3"
   xmlns="http://www.w3.org/2000/svg"
   xmlns:svg="http://www.w3.org/2000/svg">
  <defs
     id="defs3" />
  <path
     d="m 148.29007,14.143479 -107.809417,0.008 c 0.0021,0 0.008,0.0088 0.008,0.0088 -8.180171,0 -15.207743,4.890116 -18.264739,11.863206 L 0.94334607,77.286686 c -0.0577779,0.13435 -0.090734,0.27803 -0.090734,0.43118 0,0.61397 0.50583673,1.11104 1.12916023,1.11104 l 48.6808337,-0.002 c 3.459305,0 4.96663,-3.331702 2.267688,-5.98901 L 35.051129,56.110079 C 25.655154,46.898802 29.68481,25.540111 49.198265,25.540111 h 95.297915 c 0.49248,0 0.91755,-0.313012 1.06743,-0.749578 l 3.77169,-9.111893 c 0.0531,-0.128282 0.0802,-0.273344 0.0802,-0.423164 0,-0.613961 -0.49961,-1.111682 -1.12532,-1.111682 z"
     fill="#03234b"
     id="path1"
     style="stroke-width:0.793036" />
  <path
     d="m 137.54918,40.235713 -18.3001,0.01943 c -1.23476,0 -2.29505,0.74498 -2.73835,1.812247 L 96.005971,91.614395 c -0.08089,0.15313 -0.127678,0.33181 -0.127678,0.51324 0,0.61255 0.505164,1.109631 1.124526,1.109631 l 6.832801,0.002 -0.003,-0.006 c 8.29595,0 15.45549,-5.024531 18.44127,-12.154081 0,0 0.0127,0.008 0.023,0.0161 l 16.2977,-39.337537 c 0.0492,-0.1276 0.0802,-0.265984 0.0802,-0.410396 0,-0.616666 -0.50516,-1.111679 -1.12531,-1.111679 z"
     fill="#03234b"
     id="path2"
     style="stroke-width:0.793036" />
  <path
     d="m 101.57546,41.347392 c 0,-0.616665 -0.50595,-1.111679 -1.12849,-1.111679 H 48.560029 c -2.81179,0 -5.275596,3.459939 -2.296555,6.203925 l 17.143624,15.952001 c 0,0 6.942795,6.39679 5.453632,15.549307 -1.313189,8.059229 -6.81258,12.993659 -10.79045,14.768399 l -0.0107,0.002 c -0.09541,0.0483 -0.158607,0.14504 -0.158607,0.24845 0,0.154651 0.123635,0.279151 0.282163,0.279151 l 19.996652,0.003 c 1.237375,0 2.298537,-0.744421 2.739465,-1.812491 L 101.50012,41.742691 c 0.0492,-0.126252 0.0754,-0.257341 0.0754,-0.395646 z"
     fill="#03234b"
     id="path3"
     style="display:inline;stroke-width:0.793036" />
</svg>
