<?xml version="1.0" encoding="UTF-8" standalone="no"?>
<svg
   viewBox="0 0 122 122.00092"
   version="1.1"
   id="svg2"
   width="122"
   height="122.00092"
   xmlns="http://www.w3.org/2000/svg"
   xmlns:svg="http://www.w3.org/2000/svg">
  <path
      fill="#0076b2"
     d="M 9,4.6128704e-4 A 8.91,8.91 0 0 0 0,8.8012423 V 113.22116 a 8.91,8.91 0 0 0 9,8.7793 h 104 a 8.93,8.93 0 0 0 9,-8.81055 V 8.7699923 A 8.93,8.93 0 0 0 113,4.6128704e-4 Z M 27.119141,16.73093 a 10.5,10.5 0 1 1 -10.5,10.490234 10.5,10.5 0 0 1 10.5,-10.490234 z M 82.259766,44.320773 C 100.59977,44.280774 104,56.350461 104,72.000461 V 104.00046 H 85.890625 V 75.650852 c 0,-6.75 -0.120156,-15.439453 -9.410156,-15.439453 -9.29,0 -10.871094,7.359999 -10.871094,15 V 104.00046 H 47.529297 V 45.73093 h 17.361328 v 8 h 0.240234 c 2.42,-4.58 8.318907,-9.410157 17.128907,-9.410157 z M 18.060547,45.73093 h 18.109375 v 58.26953 H 18.060547 Z" />
</svg>
